<?xml version="1.0" encoding="UTF-8"?>
<svg id="Layer_2" data-name="Layer 2" xmlns="http://www.w3.org/2000/svg" viewBox="0 0 112.73 112.73">
  <defs>
    <style>
      .cls-1 {
        fill: #fff;
      }
    </style>
  </defs>
  <g id="Layer_1-2" data-name="Layer 1">
    <g>
      <rect class="cls-1" width="112.73" height="112.73"/>
      <g>
        <rect x="9.59" y="9.59" width="2.83" height="2.83"/>
        <rect x="12.43" y="9.59" width="2.83" height="2.83"/>
        <rect x="15.26" y="9.59" width="2.83" height="2.83"/>
        <rect x="18.1" y="9.59" width="2.83" height="2.83"/>
        <rect x="20.93" y="9.59" width="2.83" height="2.83"/>
        <rect x="23.77" y="9.59" width="2.83" height="2.83"/>
        <rect x="26.6" y="9.59" width="2.83" height="2.83"/>
        <rect x="32.27" y="9.59" width="2.83" height="2.83"/>
        <rect x="37.94" y="9.59" width="2.83" height="2.83"/>
        <rect x="43.61" y="9.59" width="2.83" height="2.83"/>
        <rect x="46.45" y="9.59" width="2.83" height="2.83"/>
        <rect x="49.28" y="9.59" width="2.83" height="2.83"/>
        <rect x="57.78" y="9.59" width="2.83" height="2.83"/>
        <rect x="69.12" y="9.59" width="2.83" height="2.83"/>
        <rect x="71.96" y="9.59" width="2.83" height="2.83"/>
        <rect x="83.3" y="9.59" width="2.83" height="2.83"/>
        <rect x="86.13" y="9.59" width="2.83" height="2.83"/>
        <rect x="88.96" y="9.59" width="2.83" height="2.83"/>
        <rect x="91.8" y="9.59" width="2.83" height="2.83"/>
        <rect x="94.63" y="9.59" width="2.83" height="2.83"/>
        <rect x="97.47" y="9.59" width="2.83" height="2.83"/>
        <rect x="100.3" y="9.59" width="2.83" height="2.83"/>
        <rect x="9.59" y="12.43" width="2.83" height="2.83"/>
        <rect x="26.6" y="12.43" width="2.83" height="2.83"/>
        <rect x="37.94" y="12.43" width="2.83" height="2.83"/>
        <rect x="43.61" y="12.43" width="2.83" height="2.83"/>
        <rect x="60.62" y="12.43" width="2.83" height="2.83"/>
        <rect x="66.29" y="12.43" width="2.83" height="2.83"/>
        <rect x="69.12" y="12.43" width="2.83" height="2.83"/>
        <rect x="77.63" y="12.43" width="2.83" height="2.83"/>
        <rect x="83.3" y="12.43" width="2.83" height="2.83"/>
        <rect x="100.3" y="12.43" width="2.83" height="2.83"/>
        <rect x="9.59" y="15.26" width="2.83" height="2.83"/>
        <rect x="15.26" y="15.26" width="2.83" height="2.83"/>
        <rect x="18.1" y="15.26" width="2.83" height="2.83"/>
        <rect x="20.93" y="15.26" width="2.83" height="2.83"/>
        <rect x="26.6" y="15.26" width="2.83" height="2.83"/>
        <rect x="32.27" y="15.26" width="2.83" height="2.83"/>
        <rect x="40.78" y="15.26" width="2.83" height="2.83"/>
        <rect x="46.45" y="15.26" width="2.83" height="2.83"/>
        <rect x="57.78" y="15.26" width="2.83" height="2.83"/>
        <rect x="63.45" y="15.26" width="2.83" height="2.83"/>
        <rect x="66.29" y="15.26" width="2.83" height="2.83"/>
        <rect x="69.12" y="15.26" width="2.83" height="2.83"/>
        <rect x="74.79" y="15.26" width="2.83" height="2.83"/>
        <rect x="83.3" y="15.26" width="2.83" height="2.83"/>
        <rect x="88.96" y="15.26" width="2.83" height="2.83"/>
        <rect x="91.8" y="15.26" width="2.83" height="2.83"/>
        <rect x="94.63" y="15.26" width="2.83" height="2.83"/>
        <rect x="100.3" y="15.26" width="2.83" height="2.83"/>
        <rect x="9.59" y="18.1" width="2.83" height="2.83"/>
        <rect x="15.26" y="18.1" width="2.83" height="2.83"/>
        <rect x="18.1" y="18.1" width="2.83" height="2.83"/>
        <rect x="20.93" y="18.1" width="2.83" height="2.83"/>
        <rect x="26.6" y="18.1" width="2.83" height="2.83"/>
        <rect x="37.94" y="18.1" width="2.83" height="2.83"/>
        <rect x="40.78" y="18.1" width="2.83" height="2.83"/>
        <rect x="43.61" y="18.1" width="2.83" height="2.83"/>
        <rect x="57.78" y="18.1" width="2.83" height="2.83"/>
        <rect x="63.45" y="18.1" width="2.83" height="2.83"/>
        <rect x="66.29" y="18.1" width="2.83" height="2.83"/>
        <rect x="71.96" y="18.1" width="2.83" height="2.83"/>
        <rect x="74.79" y="18.1" width="2.83" height="2.83"/>
        <rect x="77.63" y="18.1" width="2.83" height="2.83"/>
        <rect x="83.3" y="18.1" width="2.83" height="2.83"/>
        <rect x="88.96" y="18.1" width="2.83" height="2.83"/>
        <rect x="91.8" y="18.1" width="2.83" height="2.83"/>
        <rect x="94.63" y="18.1" width="2.83" height="2.83"/>
        <rect x="100.3" y="18.1" width="2.83" height="2.83"/>
        <rect x="9.59" y="20.93" width="2.83" height="2.83"/>
        <rect x="15.26" y="20.93" width="2.83" height="2.83"/>
        <rect x="18.1" y="20.93" width="2.83" height="2.83"/>
        <rect x="20.93" y="20.93" width="2.83" height="2.83"/>
        <rect x="26.6" y="20.93" width="2.83" height="2.83"/>
        <rect x="35.11" y="20.93" width="2.83" height="2.83"/>
        <rect x="40.78" y="20.93" width="2.83" height="2.83"/>
        <rect x="46.45" y="20.93" width="2.83" height="2.83"/>
        <rect x="52.11" y="20.93" width="2.83" height="2.83"/>
        <rect x="57.78" y="20.93" width="2.83" height="2.83"/>
        <rect x="74.79" y="20.93" width="2.83" height="2.83"/>
        <rect x="83.3" y="20.93" width="2.83" height="2.83"/>
        <rect x="88.96" y="20.93" width="2.83" height="2.83"/>
        <rect x="91.8" y="20.93" width="2.83" height="2.83"/>
        <rect x="94.63" y="20.93" width="2.83" height="2.83"/>
        <rect x="100.3" y="20.93" width="2.83" height="2.83"/>
        <rect x="9.59" y="23.77" width="2.83" height="2.83"/>
        <rect x="26.6" y="23.77" width="2.83" height="2.83"/>
        <rect x="32.27" y="23.77" width="2.83" height="2.83"/>
        <rect x="35.11" y="23.77" width="2.83" height="2.83"/>
        <rect x="40.78" y="23.77" width="2.83" height="2.83"/>
        <rect x="46.45" y="23.77" width="2.83" height="2.83"/>
        <rect x="52.11" y="23.77" width="2.83" height="2.83"/>
        <rect x="57.78" y="23.77" width="2.83" height="2.83"/>
        <rect x="66.29" y="23.77" width="2.83" height="2.83"/>
        <rect x="69.12" y="23.77" width="2.83" height="2.83"/>
        <rect x="77.63" y="23.77" width="2.83" height="2.83"/>
        <rect x="83.3" y="23.77" width="2.83" height="2.83"/>
        <rect x="100.3" y="23.77" width="2.83" height="2.83"/>
        <rect x="9.59" y="26.6" width="2.83" height="2.83"/>
        <rect x="12.43" y="26.6" width="2.83" height="2.83"/>
        <rect x="15.26" y="26.6" width="2.83" height="2.83"/>
        <rect x="18.1" y="26.6" width="2.83" height="2.83"/>
        <rect x="20.93" y="26.6" width="2.83" height="2.83"/>
        <rect x="23.77" y="26.6" width="2.83" height="2.83"/>
        <rect x="26.6" y="26.6" width="2.83" height="2.83"/>
        <rect x="32.27" y="26.6" width="2.83" height="2.83"/>
        <rect x="37.94" y="26.6" width="2.83" height="2.83"/>
        <rect x="43.61" y="26.6" width="2.83" height="2.83"/>
        <rect x="49.28" y="26.6" width="2.83" height="2.83"/>
        <rect x="54.95" y="26.6" width="2.83" height="2.83"/>
        <rect x="60.62" y="26.6" width="2.83" height="2.83"/>
        <rect x="66.29" y="26.6" width="2.83" height="2.83"/>
        <rect x="71.96" y="26.6" width="2.83" height="2.83"/>
        <rect x="77.63" y="26.6" width="2.83" height="2.83"/>
        <rect x="83.3" y="26.6" width="2.83" height="2.83"/>
        <rect x="86.13" y="26.6" width="2.83" height="2.83"/>
        <rect x="88.96" y="26.6" width="2.83" height="2.83"/>
        <rect x="91.8" y="26.6" width="2.83" height="2.83"/>
        <rect x="94.63" y="26.6" width="2.83" height="2.83"/>
        <rect x="97.47" y="26.6" width="2.83" height="2.83"/>
        <rect x="100.3" y="26.6" width="2.83" height="2.83"/>
        <rect x="43.61" y="29.44" width="2.83" height="2.83"/>
        <rect x="52.11" y="29.44" width="2.83" height="2.83"/>
        <rect x="54.95" y="29.44" width="2.83" height="2.83"/>
        <rect x="60.62" y="29.44" width="2.83" height="2.83"/>
        <rect x="63.45" y="29.44" width="2.83" height="2.83"/>
        <rect x="9.59" y="32.27" width="2.83" height="2.83"/>
        <rect x="15.26" y="32.27" width="2.83" height="2.83"/>
        <rect x="26.6" y="32.27" width="2.83" height="2.83"/>
        <rect x="29.44" y="32.27" width="2.83" height="2.83"/>
        <rect x="40.78" y="32.27" width="2.83" height="2.83"/>
        <rect x="43.61" y="32.27" width="2.83" height="2.83"/>
        <rect x="54.95" y="32.27" width="2.83" height="2.83"/>
        <rect x="63.45" y="32.27" width="2.83" height="2.83"/>
        <rect x="66.29" y="32.27" width="2.83" height="2.83"/>
        <rect x="86.13" y="32.27" width="2.83" height="2.83"/>
        <rect x="94.63" y="32.27" width="2.83" height="2.83"/>
        <rect x="100.3" y="32.27" width="2.83" height="2.83"/>
        <rect x="9.59" y="35.11" width="2.83" height="2.83"/>
        <rect x="12.43" y="35.11" width="2.83" height="2.83"/>
        <rect x="18.1" y="35.11" width="2.83" height="2.83"/>
        <rect x="20.93" y="35.11" width="2.83" height="2.83"/>
        <rect x="23.77" y="35.11" width="2.83" height="2.83"/>
        <rect x="29.44" y="35.11" width="2.83" height="2.83"/>
        <rect x="35.11" y="35.11" width="2.83" height="2.83"/>
        <rect x="37.94" y="35.11" width="2.83" height="2.83"/>
        <rect x="40.78" y="35.11" width="2.83" height="2.83"/>
        <rect x="46.45" y="35.11" width="2.83" height="2.83"/>
        <rect x="52.11" y="35.11" width="2.83" height="2.83"/>
        <rect x="54.95" y="35.11" width="2.83" height="2.83"/>
        <rect x="57.78" y="35.11" width="2.83" height="2.83"/>
        <rect x="60.62" y="35.11" width="2.83" height="2.83"/>
        <rect x="63.45" y="35.11" width="2.83" height="2.83"/>
        <rect x="66.29" y="35.11" width="2.83" height="2.83"/>
        <rect x="74.79" y="35.11" width="2.83" height="2.83"/>
        <rect x="83.3" y="35.11" width="2.83" height="2.83"/>
        <rect x="86.13" y="35.11" width="2.83" height="2.83"/>
        <rect x="100.3" y="35.11" width="2.83" height="2.83"/>
        <rect x="9.59" y="37.94" width="2.83" height="2.83"/>
        <rect x="12.43" y="37.94" width="2.83" height="2.83"/>
        <rect x="15.26" y="37.94" width="2.83" height="2.83"/>
        <rect x="18.1" y="37.94" width="2.83" height="2.83"/>
        <rect x="23.77" y="37.94" width="2.83" height="2.83"/>
        <rect x="26.6" y="37.94" width="2.83" height="2.83"/>
        <rect x="29.44" y="37.94" width="2.83" height="2.83"/>
        <rect x="32.27" y="37.94" width="2.83" height="2.83"/>
        <rect x="40.78" y="37.94" width="2.83" height="2.83"/>
        <rect x="52.11" y="37.94" width="2.83" height="2.83"/>
        <rect x="54.95" y="37.94" width="2.83" height="2.83"/>
        <rect x="57.78" y="37.94" width="2.83" height="2.83"/>
        <rect x="63.45" y="37.94" width="2.83" height="2.83"/>
        <rect x="71.96" y="37.94" width="2.83" height="2.83"/>
        <rect x="74.79" y="37.94" width="2.83" height="2.83"/>
        <rect x="80.46" y="37.94" width="2.83" height="2.83"/>
        <rect x="86.13" y="37.94" width="2.83" height="2.83"/>
        <rect x="88.96" y="37.94" width="2.83" height="2.83"/>
        <rect x="91.8" y="37.94" width="2.83" height="2.83"/>
        <rect x="94.63" y="37.94" width="2.83" height="2.83"/>
        <rect x="100.3" y="37.94" width="2.83" height="2.83"/>
        <rect x="12.43" y="40.78" width="2.83" height="2.83"/>
        <rect x="18.1" y="40.78" width="2.83" height="2.83"/>
        <rect x="20.93" y="40.78" width="2.83" height="2.83"/>
        <rect x="23.77" y="40.78" width="2.83" height="2.83"/>
        <rect x="37.94" y="40.78" width="2.83" height="2.83"/>
        <rect x="46.45" y="40.78" width="2.83" height="2.83"/>
        <rect x="60.62" y="40.78" width="2.83" height="2.83"/>
        <rect x="66.29" y="40.78" width="2.83" height="2.83"/>
        <rect x="71.96" y="40.78" width="2.83" height="2.83"/>
        <rect x="91.8" y="40.78" width="2.83" height="2.83"/>
        <rect x="9.59" y="43.61" width="2.83" height="2.83"/>
        <rect x="12.43" y="43.61" width="2.83" height="2.83"/>
        <rect x="23.77" y="43.61" width="2.83" height="2.83"/>
        <rect x="26.6" y="43.61" width="2.83" height="2.83"/>
        <rect x="29.44" y="43.61" width="2.83" height="2.83"/>
        <rect x="35.11" y="43.61" width="2.83" height="2.83"/>
        <rect x="40.78" y="43.61" width="2.83" height="2.83"/>
        <rect x="46.45" y="43.61" width="2.83" height="2.83"/>
        <rect x="52.11" y="43.61" width="2.83" height="2.83"/>
        <rect x="57.78" y="43.61" width="2.83" height="2.83"/>
        <rect x="66.29" y="43.61" width="2.83" height="2.83"/>
        <rect x="69.12" y="43.61" width="2.83" height="2.83"/>
        <rect x="74.79" y="43.61" width="2.83" height="2.83"/>
        <rect x="77.63" y="43.61" width="2.83" height="2.83"/>
        <rect x="83.3" y="43.61" width="2.83" height="2.83"/>
        <rect x="86.13" y="43.61" width="2.83" height="2.83"/>
        <rect x="88.96" y="43.61" width="2.83" height="2.83"/>
        <rect x="91.8" y="43.61" width="2.83" height="2.83"/>
        <rect x="97.47" y="43.61" width="2.83" height="2.83"/>
        <rect x="100.3" y="43.61" width="2.83" height="2.83"/>
        <rect x="9.59" y="46.45" width="2.83" height="2.83"/>
        <rect x="12.43" y="46.45" width="2.83" height="2.83"/>
        <rect x="15.26" y="46.45" width="2.83" height="2.83"/>
        <rect x="18.1" y="46.45" width="2.83" height="2.83"/>
        <rect x="29.44" y="46.45" width="2.83" height="2.83"/>
        <rect x="37.94" y="46.45" width="2.83" height="2.83"/>
        <rect x="63.45" y="46.45" width="2.83" height="2.83"/>
        <rect x="66.29" y="46.45" width="2.83" height="2.83"/>
        <rect x="69.12" y="46.45" width="2.83" height="2.83"/>
        <rect x="77.63" y="46.45" width="2.83" height="2.83"/>
        <rect x="80.46" y="46.45" width="2.83" height="2.83"/>
        <rect x="86.13" y="46.45" width="2.83" height="2.83"/>
        <rect x="91.8" y="46.45" width="2.83" height="2.83"/>
        <rect x="94.63" y="46.45" width="2.83" height="2.83"/>
        <rect x="97.47" y="46.45" width="2.83" height="2.83"/>
        <rect x="100.3" y="46.45" width="2.83" height="2.83"/>
        <rect x="12.43" y="49.28" width="2.83" height="2.83"/>
        <rect x="18.1" y="49.28" width="2.83" height="2.83"/>
        <rect x="26.6" y="49.28" width="2.83" height="2.83"/>
        <rect x="29.44" y="49.28" width="2.83" height="2.83"/>
        <rect x="40.78" y="49.28" width="2.83" height="2.83"/>
        <rect x="43.61" y="49.28" width="2.83" height="2.83"/>
        <rect x="52.11" y="49.28" width="2.83" height="2.83"/>
        <rect x="60.62" y="49.28" width="2.83" height="2.83"/>
        <rect x="63.45" y="49.28" width="2.83" height="2.83"/>
        <rect x="66.29" y="49.28" width="2.83" height="2.83"/>
        <rect x="74.79" y="49.28" width="2.83" height="2.83"/>
        <rect x="80.46" y="49.28" width="2.83" height="2.83"/>
        <rect x="83.3" y="49.28" width="2.83" height="2.83"/>
        <rect x="91.8" y="49.28" width="2.83" height="2.83"/>
        <rect x="100.3" y="49.28" width="2.83" height="2.83"/>
        <rect x="12.43" y="52.11" width="2.83" height="2.83"/>
        <rect x="18.1" y="52.11" width="2.83" height="2.83"/>
        <rect x="32.27" y="52.11" width="2.83" height="2.83"/>
        <rect x="40.78" y="52.11" width="2.83" height="2.83"/>
        <rect x="43.61" y="52.11" width="2.83" height="2.83"/>
        <rect x="49.28" y="52.11" width="2.83" height="2.83"/>
        <rect x="60.62" y="52.11" width="2.83" height="2.83"/>
        <rect x="63.45" y="52.11" width="2.83" height="2.83"/>
        <rect x="66.29" y="52.11" width="2.83" height="2.83"/>
        <rect x="71.96" y="52.11" width="2.83" height="2.83"/>
        <rect x="77.63" y="52.11" width="2.83" height="2.83"/>
        <rect x="80.46" y="52.11" width="2.83" height="2.83"/>
        <rect x="97.47" y="52.11" width="2.83" height="2.83"/>
        <rect x="15.26" y="54.95" width="2.83" height="2.83"/>
        <rect x="26.6" y="54.95" width="2.83" height="2.83"/>
        <rect x="40.78" y="54.95" width="2.83" height="2.83"/>
        <rect x="46.45" y="54.95" width="2.83" height="2.83"/>
        <rect x="49.28" y="54.95" width="2.83" height="2.83"/>
        <rect x="52.11" y="54.95" width="2.83" height="2.83"/>
        <rect x="54.95" y="54.95" width="2.83" height="2.83"/>
        <rect x="63.45" y="54.95" width="2.83" height="2.83"/>
        <rect x="66.29" y="54.95" width="2.83" height="2.83"/>
        <rect x="77.63" y="54.95" width="2.83" height="2.83"/>
        <rect x="83.3" y="54.95" width="2.83" height="2.83"/>
        <rect x="100.3" y="54.95" width="2.83" height="2.83"/>
        <rect x="9.59" y="57.78" width="2.83" height="2.83"/>
        <rect x="12.43" y="57.78" width="2.83" height="2.83"/>
        <rect x="23.77" y="57.78" width="2.83" height="2.83"/>
        <rect x="29.44" y="57.78" width="2.83" height="2.83"/>
        <rect x="43.61" y="57.78" width="2.83" height="2.83"/>
        <rect x="46.45" y="57.78" width="2.83" height="2.83"/>
        <rect x="54.95" y="57.78" width="2.83" height="2.83"/>
        <rect x="57.78" y="57.78" width="2.83" height="2.83"/>
        <rect x="63.45" y="57.78" width="2.83" height="2.83"/>
        <rect x="66.29" y="57.78" width="2.83" height="2.83"/>
        <rect x="69.12" y="57.78" width="2.83" height="2.83"/>
        <rect x="71.96" y="57.78" width="2.83" height="2.83"/>
        <rect x="74.79" y="57.78" width="2.83" height="2.83"/>
        <rect x="77.63" y="57.78" width="2.83" height="2.83"/>
        <rect x="80.46" y="57.78" width="2.83" height="2.83"/>
        <rect x="83.3" y="57.78" width="2.83" height="2.83"/>
        <rect x="86.13" y="57.78" width="2.83" height="2.83"/>
        <rect x="94.63" y="57.78" width="2.83" height="2.83"/>
        <rect x="97.47" y="57.78" width="2.83" height="2.83"/>
        <rect x="100.3" y="57.78" width="2.83" height="2.83"/>
        <rect x="15.26" y="60.62" width="2.83" height="2.83"/>
        <rect x="20.93" y="60.62" width="2.83" height="2.83"/>
        <rect x="26.6" y="60.62" width="2.83" height="2.83"/>
        <rect x="35.11" y="60.62" width="2.83" height="2.83"/>
        <rect x="37.94" y="60.62" width="2.83" height="2.83"/>
        <rect x="46.45" y="60.62" width="2.83" height="2.83"/>
        <rect x="52.11" y="60.62" width="2.83" height="2.83"/>
        <rect x="57.78" y="60.62" width="2.83" height="2.83"/>
        <rect x="60.62" y="60.62" width="2.83" height="2.83"/>
        <rect x="63.45" y="60.62" width="2.83" height="2.83"/>
        <rect x="69.12" y="60.62" width="2.83" height="2.83"/>
        <rect x="71.96" y="60.62" width="2.83" height="2.83"/>
        <rect x="74.79" y="60.62" width="2.83" height="2.83"/>
        <rect x="77.63" y="60.62" width="2.83" height="2.83"/>
        <rect x="83.3" y="60.62" width="2.83" height="2.83"/>
        <rect x="94.63" y="60.62" width="2.83" height="2.83"/>
        <rect x="100.3" y="60.62" width="2.83" height="2.83"/>
        <rect x="9.59" y="63.45" width="2.83" height="2.83"/>
        <rect x="12.43" y="63.45" width="2.83" height="2.83"/>
        <rect x="20.93" y="63.45" width="2.83" height="2.83"/>
        <rect x="29.44" y="63.45" width="2.83" height="2.83"/>
        <rect x="32.27" y="63.45" width="2.83" height="2.83"/>
        <rect x="35.11" y="63.45" width="2.83" height="2.83"/>
        <rect x="40.78" y="63.45" width="2.83" height="2.83"/>
        <rect x="43.61" y="63.45" width="2.83" height="2.83"/>
        <rect x="49.28" y="63.45" width="2.83" height="2.83"/>
        <rect x="60.62" y="63.45" width="2.83" height="2.83"/>
        <rect x="71.96" y="63.45" width="2.83" height="2.83"/>
        <rect x="80.46" y="63.45" width="2.83" height="2.83"/>
        <rect x="86.13" y="63.45" width="2.83" height="2.83"/>
        <rect x="88.96" y="63.45" width="2.83" height="2.83"/>
        <rect x="100.3" y="63.45" width="2.83" height="2.83"/>
        <rect x="9.59" y="66.29" width="2.83" height="2.83"/>
        <rect x="12.43" y="66.29" width="2.83" height="2.83"/>
        <rect x="20.93" y="66.29" width="2.83" height="2.83"/>
        <rect x="26.6" y="66.29" width="2.83" height="2.83"/>
        <rect x="32.27" y="66.29" width="2.83" height="2.83"/>
        <rect x="37.94" y="66.29" width="2.83" height="2.83"/>
        <rect x="46.45" y="66.29" width="2.83" height="2.83"/>
        <rect x="49.28" y="66.29" width="2.83" height="2.83"/>
        <rect x="54.95" y="66.29" width="2.83" height="2.83"/>
        <rect x="57.78" y="66.29" width="2.83" height="2.83"/>
        <rect x="63.45" y="66.29" width="2.83" height="2.83"/>
        <rect x="66.29" y="66.29" width="2.83" height="2.83"/>
        <rect x="69.12" y="66.29" width="2.83" height="2.83"/>
        <rect x="74.79" y="66.29" width="2.83" height="2.83"/>
        <rect x="77.63" y="66.29" width="2.83" height="2.83"/>
        <rect x="83.3" y="66.29" width="2.83" height="2.83"/>
        <rect x="88.96" y="66.29" width="2.83" height="2.83"/>
        <rect x="100.3" y="66.29" width="2.83" height="2.83"/>
        <rect x="18.1" y="69.12" width="2.83" height="2.83"/>
        <rect x="23.77" y="69.12" width="2.83" height="2.83"/>
        <rect x="32.27" y="69.12" width="2.83" height="2.83"/>
        <rect x="37.94" y="69.12" width="2.83" height="2.83"/>
        <rect x="40.78" y="69.12" width="2.83" height="2.83"/>
        <rect x="43.61" y="69.12" width="2.83" height="2.83"/>
        <rect x="46.45" y="69.12" width="2.83" height="2.83"/>
        <rect x="54.95" y="69.12" width="2.83" height="2.83"/>
        <rect x="57.78" y="69.12" width="2.83" height="2.83"/>
        <rect x="63.45" y="69.12" width="2.83" height="2.83"/>
        <rect x="77.63" y="69.12" width="2.83" height="2.83"/>
        <rect x="86.13" y="69.12" width="2.83" height="2.83"/>
        <rect x="91.8" y="69.12" width="2.83" height="2.83"/>
        <rect x="94.63" y="69.12" width="2.83" height="2.83"/>
        <rect x="97.47" y="69.12" width="2.83" height="2.83"/>
        <rect x="100.3" y="69.12" width="2.83" height="2.83"/>
        <rect x="9.59" y="71.96" width="2.83" height="2.83"/>
        <rect x="12.43" y="71.96" width="2.83" height="2.83"/>
        <rect x="18.1" y="71.96" width="2.83" height="2.83"/>
        <rect x="26.6" y="71.96" width="2.83" height="2.83"/>
        <rect x="29.44" y="71.96" width="2.83" height="2.83"/>
        <rect x="32.27" y="71.96" width="2.83" height="2.83"/>
        <rect x="35.11" y="71.96" width="2.83" height="2.83"/>
        <rect x="43.61" y="71.96" width="2.83" height="2.83"/>
        <rect x="46.45" y="71.96" width="2.83" height="2.83"/>
        <rect x="54.95" y="71.96" width="2.83" height="2.83"/>
        <rect x="57.78" y="71.96" width="2.83" height="2.83"/>
        <rect x="60.62" y="71.96" width="2.83" height="2.83"/>
        <rect x="63.45" y="71.96" width="2.83" height="2.83"/>
        <rect x="71.96" y="71.96" width="2.83" height="2.83"/>
        <rect x="74.79" y="71.96" width="2.83" height="2.83"/>
        <rect x="77.63" y="71.96" width="2.83" height="2.83"/>
        <rect x="80.46" y="71.96" width="2.83" height="2.83"/>
        <rect x="94.63" y="71.96" width="2.83" height="2.83"/>
        <rect x="100.3" y="71.96" width="2.83" height="2.83"/>
        <rect x="18.1" y="74.79" width="2.83" height="2.83"/>
        <rect x="20.93" y="74.79" width="2.83" height="2.83"/>
        <rect x="32.27" y="74.79" width="2.83" height="2.83"/>
        <rect x="35.11" y="74.79" width="2.83" height="2.83"/>
        <rect x="40.78" y="74.79" width="2.83" height="2.83"/>
        <rect x="46.45" y="74.79" width="2.83" height="2.83"/>
        <rect x="49.28" y="74.79" width="2.83" height="2.83"/>
        <rect x="52.11" y="74.79" width="2.83" height="2.83"/>
        <rect x="54.95" y="74.79" width="2.83" height="2.83"/>
        <rect x="60.62" y="74.79" width="2.83" height="2.83"/>
        <rect x="63.45" y="74.79" width="2.83" height="2.83"/>
        <rect x="71.96" y="74.79" width="2.83" height="2.83"/>
        <rect x="80.46" y="74.79" width="2.83" height="2.83"/>
        <rect x="86.13" y="74.79" width="2.83" height="2.83"/>
        <rect x="88.96" y="74.79" width="2.83" height="2.83"/>
        <rect x="91.8" y="74.79" width="2.83" height="2.83"/>
        <rect x="97.47" y="74.79" width="2.83" height="2.83"/>
        <rect x="9.59" y="77.63" width="2.83" height="2.83"/>
        <rect x="12.43" y="77.63" width="2.83" height="2.83"/>
        <rect x="18.1" y="77.63" width="2.83" height="2.83"/>
        <rect x="23.77" y="77.63" width="2.83" height="2.83"/>
        <rect x="26.6" y="77.63" width="2.83" height="2.83"/>
        <rect x="32.27" y="77.63" width="2.83" height="2.83"/>
        <rect x="35.11" y="77.63" width="2.83" height="2.83"/>
        <rect x="37.94" y="77.63" width="2.83" height="2.83"/>
        <rect x="46.45" y="77.63" width="2.83" height="2.83"/>
        <rect x="63.45" y="77.63" width="2.83" height="2.83"/>
        <rect x="66.29" y="77.63" width="2.83" height="2.83"/>
        <rect x="74.79" y="77.63" width="2.83" height="2.83"/>
        <rect x="77.63" y="77.63" width="2.83" height="2.83"/>
        <rect x="80.46" y="77.63" width="2.83" height="2.83"/>
        <rect x="83.3" y="77.63" width="2.83" height="2.83"/>
        <rect x="86.13" y="77.63" width="2.83" height="2.83"/>
        <rect x="88.96" y="77.63" width="2.83" height="2.83"/>
        <rect x="91.8" y="77.63" width="2.83" height="2.83"/>
        <rect x="94.63" y="77.63" width="2.83" height="2.83"/>
        <rect x="97.47" y="77.63" width="2.83" height="2.83"/>
        <rect x="32.27" y="80.46" width="2.83" height="2.83"/>
        <rect x="35.11" y="80.46" width="2.83" height="2.83"/>
        <rect x="37.94" y="80.46" width="2.83" height="2.83"/>
        <rect x="46.45" y="80.46" width="2.83" height="2.83"/>
        <rect x="52.11" y="80.46" width="2.83" height="2.83"/>
        <rect x="57.78" y="80.46" width="2.83" height="2.83"/>
        <rect x="63.45" y="80.46" width="2.83" height="2.83"/>
        <rect x="66.29" y="80.46" width="2.83" height="2.83"/>
        <rect x="69.12" y="80.46" width="2.83" height="2.83"/>
        <rect x="74.79" y="80.46" width="2.83" height="2.83"/>
        <rect x="77.63" y="80.46" width="2.83" height="2.83"/>
        <rect x="88.96" y="80.46" width="2.83" height="2.83"/>
        <rect x="94.63" y="80.46" width="2.83" height="2.83"/>
        <rect x="100.3" y="80.46" width="2.83" height="2.83"/>
        <rect x="9.59" y="83.3" width="2.83" height="2.83"/>
        <rect x="12.43" y="83.3" width="2.83" height="2.83"/>
        <rect x="15.26" y="83.3" width="2.83" height="2.83"/>
        <rect x="18.1" y="83.3" width="2.83" height="2.83"/>
        <rect x="20.93" y="83.3" width="2.83" height="2.83"/>
        <rect x="23.77" y="83.3" width="2.83" height="2.83"/>
        <rect x="26.6" y="83.3" width="2.83" height="2.83"/>
        <rect x="32.27" y="83.3" width="2.83" height="2.83"/>
        <rect x="52.11" y="83.3" width="2.83" height="2.83"/>
        <rect x="54.95" y="83.3" width="2.83" height="2.83"/>
        <rect x="63.45" y="83.3" width="2.83" height="2.83"/>
        <rect x="77.63" y="83.3" width="2.83" height="2.83"/>
        <rect x="83.3" y="83.3" width="2.83" height="2.83"/>
        <rect x="88.96" y="83.3" width="2.83" height="2.83"/>
        <rect x="91.8" y="83.3" width="2.83" height="2.83"/>
        <rect x="97.47" y="83.3" width="2.83" height="2.83"/>
        <rect x="100.3" y="83.3" width="2.83" height="2.83"/>
        <rect x="9.59" y="86.13" width="2.83" height="2.83"/>
        <rect x="26.6" y="86.13" width="2.83" height="2.83"/>
        <rect x="37.94" y="86.13" width="2.83" height="2.83"/>
        <rect x="40.78" y="86.13" width="2.83" height="2.83"/>
        <rect x="43.61" y="86.13" width="2.83" height="2.83"/>
        <rect x="46.45" y="86.13" width="2.83" height="2.83"/>
        <rect x="49.28" y="86.13" width="2.83" height="2.83"/>
        <rect x="52.11" y="86.13" width="2.83" height="2.83"/>
        <rect x="54.95" y="86.13" width="2.83" height="2.83"/>
        <rect x="66.29" y="86.13" width="2.83" height="2.83"/>
        <rect x="71.96" y="86.13" width="2.83" height="2.83"/>
        <rect x="74.79" y="86.13" width="2.83" height="2.83"/>
        <rect x="77.63" y="86.13" width="2.83" height="2.83"/>
        <rect x="88.96" y="86.13" width="2.83" height="2.83"/>
        <rect x="9.59" y="88.96" width="2.83" height="2.83"/>
        <rect x="15.26" y="88.96" width="2.83" height="2.83"/>
        <rect x="18.1" y="88.96" width="2.83" height="2.83"/>
        <rect x="20.93" y="88.96" width="2.83" height="2.83"/>
        <rect x="26.6" y="88.96" width="2.83" height="2.83"/>
        <rect x="35.11" y="88.96" width="2.83" height="2.83"/>
        <rect x="37.94" y="88.96" width="2.83" height="2.83"/>
        <rect x="40.78" y="88.96" width="2.83" height="2.83"/>
        <rect x="43.61" y="88.96" width="2.83" height="2.83"/>
        <rect x="49.28" y="88.96" width="2.83" height="2.83"/>
        <rect x="54.95" y="88.96" width="2.83" height="2.83"/>
        <rect x="57.78" y="88.96" width="2.83" height="2.83"/>
        <rect x="63.45" y="88.96" width="2.83" height="2.83"/>
        <rect x="69.12" y="88.96" width="2.83" height="2.83"/>
        <rect x="74.79" y="88.96" width="2.83" height="2.83"/>
        <rect x="77.63" y="88.96" width="2.83" height="2.83"/>
        <rect x="80.46" y="88.96" width="2.83" height="2.83"/>
        <rect x="83.3" y="88.96" width="2.83" height="2.83"/>
        <rect x="86.13" y="88.96" width="2.83" height="2.83"/>
        <rect x="88.96" y="88.96" width="2.83" height="2.83"/>
        <rect x="91.8" y="88.96" width="2.83" height="2.83"/>
        <rect x="9.59" y="91.8" width="2.83" height="2.83"/>
        <rect x="15.26" y="91.8" width="2.83" height="2.83"/>
        <rect x="18.1" y="91.8" width="2.83" height="2.83"/>
        <rect x="20.93" y="91.8" width="2.83" height="2.83"/>
        <rect x="26.6" y="91.8" width="2.83" height="2.83"/>
        <rect x="37.94" y="91.8" width="2.83" height="2.83"/>
        <rect x="40.78" y="91.8" width="2.83" height="2.83"/>
        <rect x="57.78" y="91.8" width="2.83" height="2.83"/>
        <rect x="60.62" y="91.8" width="2.83" height="2.83"/>
        <rect x="66.29" y="91.8" width="2.83" height="2.83"/>
        <rect x="69.12" y="91.8" width="2.83" height="2.83"/>
        <rect x="74.79" y="91.8" width="2.83" height="2.83"/>
        <rect x="77.63" y="91.8" width="2.83" height="2.83"/>
        <rect x="88.96" y="91.8" width="2.83" height="2.83"/>
        <rect x="94.63" y="91.8" width="2.83" height="2.83"/>
        <rect x="97.47" y="91.8" width="2.83" height="2.83"/>
        <rect x="100.3" y="91.8" width="2.83" height="2.83"/>
        <rect x="9.59" y="94.63" width="2.83" height="2.83"/>
        <rect x="15.26" y="94.63" width="2.83" height="2.83"/>
        <rect x="18.1" y="94.63" width="2.83" height="2.83"/>
        <rect x="20.93" y="94.63" width="2.83" height="2.83"/>
        <rect x="26.6" y="94.63" width="2.83" height="2.83"/>
        <rect x="32.27" y="94.63" width="2.83" height="2.83"/>
        <rect x="49.28" y="94.63" width="2.83" height="2.83"/>
        <rect x="52.11" y="94.63" width="2.83" height="2.83"/>
        <rect x="54.95" y="94.63" width="2.83" height="2.83"/>
        <rect x="63.45" y="94.63" width="2.83" height="2.83"/>
        <rect x="66.29" y="94.63" width="2.83" height="2.83"/>
        <rect x="69.12" y="94.63" width="2.83" height="2.83"/>
        <rect x="71.96" y="94.63" width="2.83" height="2.83"/>
        <rect x="86.13" y="94.63" width="2.83" height="2.83"/>
        <rect x="88.96" y="94.63" width="2.83" height="2.83"/>
        <rect x="91.8" y="94.63" width="2.83" height="2.83"/>
        <rect x="97.47" y="94.63" width="2.83" height="2.83"/>
        <rect x="100.3" y="94.63" width="2.83" height="2.83"/>
        <rect x="9.59" y="97.47" width="2.83" height="2.83"/>
        <rect x="26.6" y="97.47" width="2.83" height="2.83"/>
        <rect x="43.61" y="97.47" width="2.83" height="2.83"/>
        <rect x="52.11" y="97.47" width="2.83" height="2.83"/>
        <rect x="60.62" y="97.47" width="2.83" height="2.83"/>
        <rect x="63.45" y="97.47" width="2.83" height="2.83"/>
        <rect x="66.29" y="97.47" width="2.83" height="2.83"/>
        <rect x="77.63" y="97.47" width="2.83" height="2.83"/>
        <rect x="86.13" y="97.47" width="2.83" height="2.83"/>
        <rect x="88.96" y="97.47" width="2.83" height="2.83"/>
        <rect x="91.8" y="97.47" width="2.83" height="2.83"/>
        <rect x="9.59" y="100.3" width="2.83" height="2.83"/>
        <rect x="12.43" y="100.3" width="2.83" height="2.83"/>
        <rect x="15.26" y="100.3" width="2.83" height="2.83"/>
        <rect x="18.1" y="100.3" width="2.83" height="2.83"/>
        <rect x="20.93" y="100.3" width="2.83" height="2.83"/>
        <rect x="23.77" y="100.3" width="2.83" height="2.83"/>
        <rect x="26.6" y="100.3" width="2.83" height="2.83"/>
        <rect x="32.27" y="100.3" width="2.83" height="2.83"/>
        <rect x="37.94" y="100.3" width="2.83" height="2.83"/>
        <rect x="43.61" y="100.3" width="2.83" height="2.83"/>
        <rect x="49.28" y="100.3" width="2.83" height="2.83"/>
        <rect x="52.11" y="100.3" width="2.83" height="2.83"/>
        <rect x="54.95" y="100.3" width="2.83" height="2.83"/>
        <rect x="74.79" y="100.3" width="2.83" height="2.83"/>
        <rect x="77.63" y="100.3" width="2.83" height="2.83"/>
        <rect x="83.3" y="100.3" width="2.83" height="2.83"/>
        <rect x="91.8" y="100.3" width="2.83" height="2.83"/>
        <rect x="94.63" y="100.3" width="2.83" height="2.83"/>
        <rect x="100.3" y="100.3" width="2.83" height="2.83"/>
      </g>
    </g>
  </g>
</svg>